<svg width="24" height="24" viewBox="0 0 24 24" fill="none" xmlns="http://www.w3.org/2000/svg">
  <g>
    <path d="M16.365 1.43c0 1.14-.93 2.07-2.07 2.07-.03 0-.06 0-.09-.01-.02-.03-.03-.07-.03-.11 0-1.13.94-2.07 2.07-2.07.04 0 .08.01.11.02.01.03.02.06.02.1zm2.84 10.13c-.02-2.13 1.74-3.15 1.82-3.2-1-1.46-2.56-1.66-3.11-1.68-1.32-.13-2.58.77-3.25.77-.67 0-1.7-.75-2.8-.73-1.44.02-2.77.84-3.5 2.13-1.5 2.6-.38 6.45 1.07 8.56.71 1.03 1.56 2.19 2.67 2.15 1.08-.04 1.48-.7 2.78-.7 1.3 0 1.66.7 2.8.68 1.16-.02 1.89-1.04 2.59-2.07.83-1.21 1.17-2.39 1.18-2.45-.03-.01-2.26-.87-2.28-3.45zm-2.7-5.98c.56-.68.94-1.62.84-2.56-.81.03-1.78.54-2.36 1.22-.52.6-.98 1.56-.81 2.48.86.07 1.77-.44 2.33-1.14z" fill="#000"/>
  </g>
</svg>
