<svg width="24" height="24" viewBox="0 0 24 24" fill="none" xmlns="http://www.w3.org/2000/svg">
  <g>
    <path d="M21.805 10.023h-9.765v3.954h5.617c-.242 1.242-1.484 3.648-5.617 3.648-3.375 0-6.133-2.789-6.133-6.25s2.758-6.25 6.133-6.25c1.922 0 3.211.82 3.953 1.523l2.703-2.633c-1.711-1.57-3.922-2.523-6.656-2.523-5.523 0-10 4.477-10 10s4.477 10 10 10c5.742 0 9.547-4.023 9.547-9.695 0-.652-.07-1.148-.156-1.524z" fill="#4285F4"/>
    <path d="M3.152 7.548l3.242 2.379c.883-1.672 2.57-2.879 4.606-2.879 1.125 0 2.148.383 2.953 1.016l2.703-2.633c-1.711-1.57-3.922-2.523-6.656-2.523-3.789 0-7.008 2.484-8.242 5.94z" fill="#34A853"/>
    <path d="M12 22c2.672 0 4.922-.883 6.563-2.406l-3.047-2.484c-.844.57-1.922.906-3.516.906-2.844 0-5.258-1.922-6.125-4.523l-3.242 2.5c1.219 3.406 4.438 5.997 8.367 5.997z" fill="#FBBC05"/>
    <path d="M21.805 10.023h-9.765v3.954h5.617c-.242 1.242-1.484 3.648-5.617 3.648-3.375 0-6.133-2.789-6.133-6.25s2.758-6.25 6.133-6.25c1.922 0 3.211.82 3.953 1.523l2.703-2.633c-1.711-1.57-3.922-2.523-6.656-2.523-5.523 0-10 4.477-10 10s4.477 10 10 10c5.742 0 9.547-4.023 9.547-9.695 0-.652-.07-1.148-.156-1.524z" fill="#4285F4"/>
  </g>
</svg>
